<?xml version="1.0" standalone="no"?><!DOCTYPE svg PUBLIC "-//W3C//DTD SVG 1.1//EN" "http://www.w3.org/Graphics/SVG/1.1/DTD/svg11.dtd"><svg t="1505964950244" class="icon" style="" viewBox="0 0 1024 1024" version="1.1" xmlns="http://www.w3.org/2000/svg" p-id="2399" xmlns:xlink="http://www.w3.org/1999/xlink" width="200" height="200"><defs><style type="text/css"></style></defs><path d="M854.708224 730.776576C764.2112 759.06048 607.372288 638.62272 590.639104 585.424896 571.853824 525.734912 621.83936 515.58912 621.83936 515.58912 656.110592 505.373696 778.858496 545.711104 837.33504 491.416576 871.129088 459.99616 932.676608 469.738496 948.062208 506.587136 982.925312 590.176256 937.142272 705.019904 854.708224 730.776576ZM626.486272 437.879808C565.383168 437.763072 571.426816 385.845248 571.426816 385.845248 572.542976 349.233152 647.851008 241.85856 615.615488 167.97696 596.944896 125.28128 624.991232 68.221952 663.9104 64.581632 752.108544 56.372224 844.361728 136.557568 842.753024 225.001472 840.98048 322.077696 680.923136 437.982208 626.486272 437.879808ZM503.41376 545.496064C471.411712 545.496064 445.494272 519.462912 445.494272 487.354368 445.494272 455.246848 471.411712 429.212672 503.41376 429.212672 535.430144 429.212672 561.389568 455.246848 561.389568 487.354368 561.389568 519.462912 535.430144 545.496064 503.41376 545.496064ZM435.639296 394.963968C402.05824 382.557184 325.84704 275.857408 247.436288 284.505088 202.09664 289.545216 157.874176 244.537344 166.560768 205.39904 186.218496 116.767744 289.015808 51.46624 370.446336 80.374784 459.845632 112.115712 517.778432 304.176128 500.847616 357.291008 481.864704 416.91136 435.639296 394.963968 435.639296 394.963968ZM387.378176 455.038976C436.739072 492.005376 402.122752 530.353152 402.122752 530.353152 380.234752 559.296512 257.830912 600.7296 241.62304 679.953408 232.27904 725.751808 176.907264 755.01568 143.358976 734.467072 67.296256 687.893504 38.557696 567.354368 90.51648 496.776192 147.529728 419.304448 343.386112 422.102016 387.378176 455.038976ZM442.865664 596.043776C492.374016 559.261696 517.203968 604.910592 517.203968 604.910592 537.254912 635.199488 537.828352 767.522816 606.206976 807.808 645.76512 831.105024 655.765504 894.181376 626.3552 920.594432 559.702016 980.468736 439.13728 971.265024 389.808128 898.732032 335.634432 819.136512 398.756864 628.795392 442.865664 596.043776Z" fill="#1afa29" p-id="2400"></path></svg>