<?xml version="1.0" standalone="no"?><!DOCTYPE svg PUBLIC "-//W3C//DTD SVG 1.1//EN" "http://www.w3.org/Graphics/SVG/1.1/DTD/svg11.dtd"><svg t="1505976443311" class="icon" style="" viewBox="0 0 3218 1024" version="1.1" xmlns="http://www.w3.org/2000/svg" p-id="1038" xmlns:xlink="http://www.w3.org/1999/xlink" width="628.515625" height="200"><defs><style type="text/css"></style></defs><path d="M351.085714 656.091429c0-22.966857 68.022857-45.982476 135.948191-45.982477 45.348571 0 67.974095-45.982476 22.674285-68.949333-22.674286 0-45.348571 0-67.974095-22.966857-22.625524-23.015619-22.625524-68.998095 0-91.964952 90.648381-45.982476 203.922286 22.966857 249.173334 91.964952 45.348571 45.933714 135.94819 45.933714 135.94819 45.933714 67.974095 0 113.273905 0 181.248 23.015619 90.599619 22.966857 158.573714 22.966857 249.173333 0 113.322667-23.015619 90.648381-160.914286-45.299809-160.914285-135.899429 0-113.273905-160.914286 0-160.914286 226.54781-22.966857 158.622476 321.828571 453.095619 275.846095 226.54781-22.966857 181.248 68.949333 317.147428 45.982476 90.648381 0 181.248-45.982476 271.896381-114.931809 113.273905-91.964952 294.521905-229.863619 430.421334-137.947429 22.625524 23.015619 45.29981 45.982476 45.299809 68.949333 0 68.998095-45.348571 91.964952-113.273904 91.964953-90.599619 0-45.348571 91.964952 0 68.949333 135.94819-45.933714 226.54781 23.015619 339.821714 68.998095l45.348571 22.966858H351.085714z" fill="#48BCD8" p-id="1039"></path><path d="M1891.620571 403.260952s22.674286 22.918095-22.625523 45.933715-45.348571 0-90.648381 0c-45.29981 0-45.29981 23.015619-67.974096 23.015619-22.625524 0-45.29981 0-22.625523-23.015619 0-22.966857 22.625524-45.982476 67.974095-91.916191 113.273905-45.982476 135.899429 45.933714 135.899428 45.933714zM1234.651429 564.175238c-22.674286 22.918095-90.599619 0-113.273905 0-22.674286-23.015619-45.348571-45.982476-22.674286-68.998095 22.674286-22.966857 45.348571-22.966857 67.974095-22.966857 22.674286 22.966857 67.974095 68.949333 67.974096 91.91619z" fill="#48BCD8" p-id="1040"></path><path d="M1121.377524 495.177143c22.674286-22.966857 22.674286-22.966857 22.674286 0 0 0 0 23.015619-22.674286 0 0 23.015619 0 23.015619 0 0zM1166.677333 380.245333c0 45.982476 45.348571 45.982476 22.674286 0 0-22.966857 0-22.966857 22.625524-22.966857v-23.015619c-22.625524 0-45.29981 23.015619-45.29981 45.982476zM1234.651429 311.296c22.674286-23.015619 22.674286 0 22.674285 0s0 22.966857-22.674285 0c0 22.966857 0 22.966857 0 0zM1823.695238 357.278476c22.625524 0 22.625524 45.933714 0 0-22.674286 22.966857-22.674286 22.966857-45.348571 22.966857 0 0 22.674286-22.966857 45.348571-22.966857zM2639.238095 334.262857c67.925333 0 45.29981 68.949333-22.674285 45.982476h-67.974096c-22.625524 0-22.625524 0-22.625524-22.966857 0-23.015619 67.925333-23.015619 113.273905-23.015619zM2480.615619 380.245333c22.674286 22.966857 22.674286 22.966857 0 22.966857 0 0-22.625524 0 0-22.918095-22.625524 0-22.625524 0 0 0z" fill="#F4F3EE" p-id="1041"></path><path d="M1529.173333 288.280381s22.625524 0 45.29981 23.015619c22.625524 22.966857 0 45.982476 0 91.91619 0 45.982476 0 45.982476 22.625524 68.998096 0 22.966857 0 45.982476-22.625524 22.966857-22.674286 0-45.348571-22.966857-67.974095-68.949333-45.348571-114.93181 22.674286-137.947429 22.674285-137.947429z" fill="#48BCD8" p-id="1042"></path><path d="M1529.173333 334.262857c22.625524-22.966857 45.29981-22.966857 0 0v45.982476c-22.674286-22.966857-22.674286-45.982476 0-45.982476z" fill="#F4F3EE" p-id="1043"></path><path d="M894.829714 242.346667s-22.625524 22.918095-22.625524 45.933714c0 45.982476 22.625524 23.015619 67.925334 68.998095 22.674286 45.933714 22.674286 45.933714 22.674286 68.949334 0 22.966857 22.625524 22.966857 45.348571 0 22.625524-23.015619 22.625524-45.982476 0-91.964953-45.348571-114.93181-113.322667-91.91619-113.322667-91.91619z" fill="#48BCD8" p-id="1044"></path><path d="M917.504 265.264762c-22.674286 0-45.348571 23.015619 0 23.015619h22.625524c22.674286 0 0-22.966857-22.625524-22.966857z" fill="#F4F3EE" p-id="1045"></path><path d="M1936.920381 564.175238c22.674286 22.918095 90.648381 0 113.273905-23.015619 22.674286-22.966857 22.674286-45.982476 22.674285-68.949333-22.674286-23.015619-45.348571-23.015619-67.974095-23.015619-22.674286 23.015619-67.974095 91.964952-67.974095 114.931809z" fill="#48BCD8" p-id="1046"></path><path d="M2050.194286 495.177143c0-22.966857 0-22.966857 0 0-22.625524-22.966857-22.625524 0-22.625524 0h22.625524z" fill="#F4F3EE" p-id="1047"></path><path d="M2344.71619 265.264762s22.674286 23.015619 0 68.998095c-22.674286 45.982476-45.348571 23.015619-90.599619 45.982476-45.348571 22.966857-45.348571 22.966857-45.348571 45.982477 0 22.966857-22.625524 22.966857-45.29981 0 0-23.015619 0-68.949333 22.674286-114.93181 113.273905-114.93181 158.573714-45.982476 158.573714-45.982476z" fill="#48BCD8" p-id="1048"></path><path d="M2276.742095 265.264762c22.674286 0 45.348571 23.015619 0 0 0 23.015619-22.625524 23.015619-22.625524 23.015619s0-22.966857 22.625524-22.966857z" fill="#F4F3EE" p-id="1049"></path><path d="M2797.81181 518.192762c0 22.966857 67.974095 0 67.974095 0 22.625524 0 22.625524-23.015619 22.625524-45.982476 0-23.015619-22.625524-23.015619-45.348572-23.015619-22.625524 23.015619-45.251048 45.982476-45.251047 68.998095z" fill="#48BCD8" p-id="1050"></path><path d="M2888.411429 472.210286c0-23.015619 0-23.015619 0 0-22.625524-23.015619-22.625524-23.015619 0 0-22.625524 0-22.625524 0 0 0-22.625524 0 0 0 0 0z" fill="#F4F3EE" p-id="1051"></path><path d="M419.108571 587.093333h-45.348571s-22.625524-22.918095 0-22.918095c0 0 22.674286-23.015619 22.674286 0 22.674286 0 45.348571 22.918095 22.674285 22.918095z" fill="#48BCD8" p-id="1052"></path><path d="M373.808762 564.175238s0-23.015619 0 0c22.625524-23.015619 22.625524-23.015619 0 0 22.625524 0 22.625524 0 0 0z" fill="#F4F3EE" p-id="1053"></path><path d="M3001.685333 564.175238c-22.674286 22.918095-22.674286 22.918095-45.348571 0h-22.625524s-22.625524 0 0-23.015619l22.674286-22.966857c45.348571 0 45.348571 45.933714 45.348571 45.933714z" fill="#48BCD8" p-id="1054"></path><path d="M2979.011048 541.159619c22.674286 0 0 22.966857 0 0z" fill="#F4F3EE" p-id="1055"></path><path d="M668.281905 311.296s-22.625524 22.966857 0 45.982476c22.674286 22.966857 22.674286 22.966857 67.974095 45.933714 45.348571 23.015619 45.348571 45.982476 45.348571 45.982477 0 23.015619 22.625524 23.015619 22.625524 0 0-22.966857 0-45.982476-22.674285-91.916191-67.974095-91.964952-113.273905-45.982476-113.273905-45.982476z" fill="#48BCD8" p-id="1056"></path><path d="M713.581714 334.262857c-22.625524-22.966857-22.625524 23.015619 0 0 0 23.015619 22.674286 23.015619 22.674286 23.015619s0-23.015619-22.674286-23.015619z" fill="#F4F3EE" p-id="1057"></path><path d="M2979.011048 334.262857v23.015619c-22.625524 22.966857-22.625524 0-45.29981 0-22.625524 0-22.625524 0-45.299809 22.966857 0 0-22.625524 0-22.625524-22.966857 0-23.015619 22.625524-23.015619 45.299809-45.982476 45.29981-23.015619 67.925333 22.966857 67.925334 22.966857z" fill="#48BCD8" p-id="1058"></path><path d="M2956.385524 311.296s0 22.966857 0 0c-22.674286 22.966857-22.674286 0 0 0-22.674286 22.966857-22.674286 22.966857 0 0-22.674286 0-22.674286 0 0 0z" fill="#F4F3EE" p-id="1059"></path><path d="M872.20419 472.210286s-22.674286 0 0 22.966857c0 23.015619 22.625524 0 45.29981 23.015619l22.625524 22.966857s22.674286 22.966857 22.674286 0v-45.982476c-67.974095-45.982476-90.599619-22.966857-90.59962-22.966857z" fill="#48BCD8" p-id="1060"></path><path d="M894.829714 472.210286s0 22.966857 0 0c0 22.966857 22.674286 22.966857 0 0 22.674286 22.966857 22.674286 22.966857 0 0 22.674286 22.966857 22.674286 0 0 0zM487.033905 449.194667c-45.29981 0-22.625524 45.982476 22.674285 23.015619H577.682286c-22.674286 0-67.974095-23.015619-90.648381-23.015619zM600.30781 472.210286c-22.625524 0-22.625524 0 0 0-22.625524 22.966857-22.625524 22.966857 0 0 0 22.966857 0 22.966857 0 0 0 22.966857 0 0 0 0z" fill="#F4F3EE" p-id="1061"></path><path d="M396.434286 334.262857v23.015619c22.674286 22.966857 22.674286 0 45.348571 0s22.625524 0 45.251048 22.966857c0 0 22.674286 0 22.674285-22.966857 0-23.015619-22.674286-23.015619-45.348571-45.982476-45.251048-23.015619-67.925333 22.966857-67.925333 22.966857z" fill="#48BCD8" p-id="1062"></path><path d="M441.782857 311.296c-22.674286 0-22.674286 22.966857 0 0 22.625524 22.966857 22.625524 22.966857 22.625524 0h-22.674286z" fill="#F4F3EE" p-id="1063"></path><path d="M2072.868571 288.280381s22.625524 0 0 23.015619c0 22.966857-22.674286 0-45.348571 22.966857l-22.625524 23.015619s-22.674286 22.966857-22.674286 0c0-23.015619 0-23.015619 22.674286-45.982476 45.348571-45.982476 67.974095-23.015619 67.974095-23.015619z" fill="#48BCD8" p-id="1064"></path><path d="M2050.194286 288.280381s0 23.015619 0 0c-22.625524 23.015619-22.625524 23.015619 0 0-22.625524 23.015619-22.625524 23.015619 0 0-22.625524 23.015619-22.625524 23.015619 0 0z" fill="#F4F3EE" p-id="1065"></path><path d="M156.038095 658.285714s-43.885714 68.266667 73.142857 82.895238c112.152381 14.628571 97.52381-73.142857 170.666667-29.257142s165.790476 165.790476 248.685714 97.523809c82.895238-68.266667 385.219048-19.504762 487.619048 24.380952 102.4 43.885714 229.180952 29.257143 258.438095-4.87619 34.133333-34.133333 117.028571-68.266667 224.304762-24.380952 102.4 43.885714 419.352381-68.266667 541.257143-4.876191 117.028571 63.390476 419.352381 63.390476 438.857143 19.504762 19.504762-43.885714 258.438095-29.257143 273.066666-78.019048 14.628571-53.638095-9.752381-78.019048-97.523809-92.647619" fill="#48BCD8" p-id="1066"></path></svg>