<?xml version="1.0" standalone="no"?><!DOCTYPE svg PUBLIC "-//W3C//DTD SVG 1.1//EN" "http://www.w3.org/Graphics/SVG/1.1/DTD/svg11.dtd"><svg t="1505978287949" class="icon" style="" viewBox="0 0 1078 1024" version="1.1" xmlns="http://www.w3.org/2000/svg" p-id="8459" xmlns:xlink="http://www.w3.org/1999/xlink" width="210.546875" height="200"><defs><style type="text/css"></style></defs><path d="M539.907413 790.218524c76.149191 0 138.080711-61.949724 138.080711-138.11712a137.753031 137.753031 0 0 0-50.062222-106.404977l-9.17504-7.609458v-277.981867c0-29.017884-36.117618-53.502862-78.843449-53.502862" fill="#FFFFBF" p-id="8460"></path><path d="M570.636516 973.628302c-254.516338 0-461.591893-207.09376-461.591894-461.628302 0-254.534542 207.075556-461.610098 461.591894-461.610098s461.591893 207.075556 461.591893 461.610098-207.075556 461.628302-461.591893 461.628302z m0-886.829511C336.181476 86.798791 145.453511 277.54496 145.453511 512c0 234.473244 190.746169 425.219413 425.183005 425.219413s425.183004-190.764373 425.183004-425.219413c0-234.45504-190.727964-425.201209-425.183004-425.201209z" fill="#683651" p-id="8461"></path><path d="M551.376213 812.919467c-81.173618 0-147.219342-66.02752-147.219342-147.201138a146.764231 146.764231 0 0 1 53.357227-113.395485l5.916444-4.9152V273.703822c0-34.515627 39.449031-62.605084 87.945671-62.605084 48.478436 0 87.927467 28.089458 87.927467 62.605084v273.722027l5.89824 4.896995a146.782436 146.782436 0 0 1 53.339022 113.395485c0 81.173618-66.009316 147.201138-147.164729 147.201138z m0-583.616285c-37.155271 0-69.741227 20.753067-69.741226 44.40064v282.278116l-12.506454 10.340124a128.760036 128.760036 0 0 0-46.767217 99.396267c0 71.124764 57.871929 128.996693 129.014897 128.996693 71.10656 0 128.960284-57.871929 128.960285-128.996693a128.687218 128.687218 0 0 0-46.730809-99.396267l-12.506453-10.358329V273.703822c0-23.647573-32.585956-44.40064-69.723023-44.40064z" fill="" p-id="8462"></path><path d="M727.995733 306.417209h-42.853262a18.204444 18.204444 0 1 1 0-36.408889h42.853262a18.204444 18.204444 0 1 1 0 36.408889zM727.995733 375.994596h-42.853262a18.204444 18.204444 0 1 1 0-36.408889h42.853262a18.204444 18.204444 0 1 1 0 36.408889zM727.995733 445.571982h-42.853262a18.204444 18.204444 0 1 1 0-36.408889h42.853262a18.204444 18.204444 0 1 1 0 36.408889zM727.995733 515.149369h-42.853262a18.204444 18.204444 0 1 1 0-36.408889h42.853262a18.204444 18.204444 0 1 1 0 36.408889z" fill="#E46775" p-id="8463"></path><path d="M438.217387 715.088782a113.395484 76.986596 0 1 0 226.790969 0 113.395484 76.986596 0 1 0-226.790969 0Z" fill="#3FE9DD" p-id="8464"></path></svg>