<?xml version="1.0" standalone="no"?><!DOCTYPE svg PUBLIC "-//W3C//DTD SVG 1.1//EN" "http://www.w3.org/Graphics/SVG/1.1/DTD/svg11.dtd"><svg t="1505979383861" class="icon" style="" viewBox="0 0 1024 1024" version="1.1" xmlns="http://www.w3.org/2000/svg" p-id="2335" xmlns:xlink="http://www.w3.org/1999/xlink" width="200" height="200"><defs><style type="text/css"></style></defs><path d="M558.1 352.4c-1.9-0.3-3.9-0.7-5.7-1.2-16.3-3.9-102.5-22.7-123.2 12.6 4.5 3.7 7.4 9 8.3 14.7l66.1 394.1c1.2 7-0.5 12.8-3.8 12.8H319.5c-0.1 0-0.3 0-0.4-0.1-15.3-0.9-27.5-10.6-27.5-22.4 0-12.3 13.3-22.4 29.5-22.5l60.7-361.9c1.1-6.8 5-12.8 10.8-16.6-8.3-12-23.7-46.3 38.9-79.3 16.7-8.7 35.1-13.8 54-14.7 24.8-1.3 62.9-1.2 93.4 8.3 6.9 2 14.1 3.1 21.3 3.2 28.2 0.7 92.3 0 117.8-19.1v68.2c0.1 0-32.6 45.9-159.9 23.9z" p-id="2336" fill="#2c2c2c"></path><path d="M909.5 512c0 11.2-0.4 22.4-1.3 33.6-0.4 5.5-1 11-1.6 16.5-0.2 1.4-0.3 2.7-0.5 4.1-0.6 5 0.8-5.3 0.3-1.9-0.4 2.9-0.9 5.9-1.3 8.8-3.5 21.4-8.6 42.5-15.3 63.1-3.3 10.2-7.1 20.2-11.1 30.1-1.9 4.7 2.5-5.7 0.5-1.1-0.4 1-0.9 2-1.3 3.1-1 2.2-2 4.5-3 6.7-2.4 5.2-4.9 10.4-7.5 15.5-9.4 18.4-20.1 36.1-32 53-3 4.3-6.3 8.4-9.4 12.7 5.1-7-0.5 0.6-1.8 2.2-1.6 2-3.3 4.1-5 6.1-6.7 8.1-13.7 15.9-21 23.4-7.3 7.5-14.9 14.8-22.7 21.8-3.6 3.2-7.2 6.3-10.9 9.4-2 1.7-4 3.3-6.1 5-1 0.8-2.1 1.6-3.1 2.4-5.2 4.1 3.3-2.5-0.1 0.1-16.8 12.7-34.4 24.3-52.9 34.4-8.9 4.9-18 9.4-27.2 13.7-2.4 1.1-4.8 2.2-7.3 3.2-1.2 0.5-2.4 1-3.7 1.6 7.2-3.2 2.6-1.1 1.1-0.5-4.9 2-9.9 3.9-14.9 5.8-20.3 7.4-41.1 13.2-62.3 17.4-5.1 1-10.3 1.9-15.5 2.8-2.5 0.4-5 0.8-7.5 1.1-5.2 0.8 6.4-0.8 1.2-0.2-1.8 0.2-3.6 0.5-5.5 0.7-11.1 1.3-22.2 2.1-33.3 2.5-22.1 0.8-44.3-0.1-66.3-2.7-1.1-0.1-2.3-0.3-3.4-0.4-5.2-0.6 6.4 0.9 1.2 0.2l-8.1-1.2c-5.4-0.9-10.8-1.8-16.1-2.9-10.6-2.1-21.2-4.7-31.6-7.7-10.3-2.9-20.5-6.3-30.6-10-5-1.8-10-3.8-14.9-5.8-1.5-0.6-4.3-1.9 2.3 1-1.2-0.5-2.4-1-3.7-1.6-2.8-1.2-5.7-2.5-8.5-3.8-19.2-8.9-37.7-19.2-55.3-30.8-4-2.7-8-5.4-11.9-8.2-2.1-1.5-4.3-3.1-6.4-4.6-1.7-1.3-10.1-7.9-3.3-2.4-7.8-6.3-15.7-12.6-23.1-19.3-15.6-14-30.2-29.2-43.6-45.3-1.7-2-3.3-4.1-5-6.1-0.8-1-1.6-2.1-2.4-3.1-3.1-3.9 3.7 4.9 0.7 0.9-3.2-4.2-6.3-8.4-9.3-12.7-6.1-8.6-11.8-17.4-17.2-26.5-5.4-9.1-10.5-18.3-15.2-27.8-2.2-4.3-4.3-8.7-6.3-13.2-1.1-2.4-2.2-4.8-3.2-7.3-0.5-1.2-1-2.4-1.6-3.7 3.4 7.6 0.7 1.5 0-0.2-7.9-19.5-14.3-39.6-19.2-60-2.5-10.6-4.7-21.3-6.4-32.1l-1.2-8.1c1.5 9-0.1-0.8-0.3-2.9-0.6-5.5-1.2-11-1.6-16.6-1.7-22.4-1.6-44.9 0.2-67.2 0.4-5.1 0.9-10.1 1.5-15.2 0.2-1.4 0.3-2.7 0.5-4.1 0.6-5.2-0.9 6.4-0.2 1.2 0.5-3.2 0.9-6.3 1.5-9.5 1.8-10.7 4-21.4 6.6-32 5-20.4 11.7-40.4 19.6-59.9 1.9-4.7-2.5 5.7-0.5 1.1 0.5-1.2 1.1-2.4 1.6-3.7 1.1-2.4 2.2-4.9 3.3-7.3 2.2-4.8 4.5-9.6 6.9-14.3 4.8-9.4 9.9-18.7 15.4-27.7s11.3-17.8 17.4-26.4c2.8-3.9 5.8-7.7 8.6-11.6-5.1 7 0.5-0.6 1.8-2.2 1.9-2.4 3.9-4.8 5.8-7.1 13.2-15.7 27.5-30.5 42.9-44.2 3.9-3.5 7.9-6.9 11.9-10.3 2-1.7 4.1-3.3 6.1-5 0.9-0.7 1.7-1.4 2.6-2 4.6-3.6-4.1 3.1-0.4 0.3 8.4-6.3 17-12.4 25.8-18.2 17.7-11.5 36.3-21.7 55.6-30.5 2.4-1.1 4.8-2.2 7.3-3.2 6.3-2.7-5 2 1.4-0.6 5.4-2.2 10.7-4.3 16.2-6.2 10.1-3.7 20.3-6.9 30.7-9.8 10.2-2.8 20.6-5.3 31-7.3 5.1-1 10.3-1.9 15.5-2.7l8.1-1.2c-9 1.5 0.9-0.1 2.9-0.3 22.2-2.6 44.7-3.4 67.1-2.4 11.1 0.5 22.2 1.4 33.2 2.7 1.4 0.2 2.7 0.4 4.1 0.5-8.1-0.9-3-0.4-1.2-0.1 2.3 0.3 4.5 0.7 6.8 1 5.8 0.9 11.7 2 17.5 3.2 21.1 4.3 41.9 10.3 62.1 17.8 4.6 1.7 9.1 3.5 13.7 5.4 4.7 1.9-5.7-2.5-1.1-0.5 1.2 0.5 2.4 1.1 3.7 1.6 2.4 1.1 4.9 2.2 7.3 3.3 9.6 4.4 19.1 9.2 28.3 14.4 9.2 5.1 18.2 10.6 27 16.4 4.4 2.9 8.7 5.9 13 8.9 1.8 1.3 3.6 2.6 5.3 3.9 1.7 1.3 10.1 7.9 3.3 2.4 16.4 13.2 32.1 26.9 46.7 42.1 7.2 7.6 14.2 15.4 20.9 23.5 1.4 1.7 2.8 3.4 4.1 5.1 0.8 1 1.6 2.1 2.4 3.1 3.1 3.9-3.7-4.9-0.7-0.9 3.3 4.4 6.5 8.8 9.7 13.2 12 17.1 22.7 35.1 32.1 53.7 2.4 4.7 4.7 9.5 6.9 14.4 0.9 2 1.8 4 2.7 6.1 0.5 1.2 1 2.4 1.6 3.7-3.4-7.6-0.7-1.5 0 0.2 4 9.9 7.7 20 10.9 30.2 6.6 20.7 11.6 41.9 14.9 63.3 0.4 2.3 0.7 4.5 1 6.8-1.3-9 0.1 0.8 0.3 2.9 0.6 5.5 1.2 11 1.6 16.6 0.3 10.9 0.7 21.6 0.7 32.4 0 13.1 11.5 25.6 25 25 13.5-0.6 25-11 25-25-0.2-91.7-28.5-183.1-81.9-257.9-53.4-74.8-127.8-131.7-214.1-163.2-87-31.8-184.7-34.8-273.8-9.5-86.2 24.5-165 75.5-222 144.8-59.4 72.2-95.1 160.4-102.1 253.6C58.8 571.4 81.3 665 129 743.5c46.3 76.2 115.7 138.8 197.1 175.5 86.7 39 183.3 50 276.5 31.2 88.2-17.8 170.6-63.8 232.7-128.9 62.3-65.3 105-149.6 118.5-239 3.5-23.4 5.6-46.8 5.7-70.4 0-13.1-11.5-25.6-25-25-13.6 0.7-25 11.1-25 25.1z" p-id="2337" fill="#2c2c2c"></path><path d="M530.7 432.7h43.5c7.2 0 12.9 0.9 17.2 2.9 4.3 1.9 7.6 4.8 10 7.6 2.4 2.9 3.8 6.2 4.8 10 0.9 3.8 1.4 6.7 1.4 10 0 2.9-0.5 6.2-1.4 10-0.9 3.3-2.4 6.7-4.8 10-2.4 2.9-5.8 5.8-10 7.6-4.3 1.9-10 2.9-17.2 2.9h-26.3v37.8h-17.2v-98.8z m17.2 46.8h25.4c1.9 0 3.8-0.5 5.8-0.9 1.9-0.5 3.8-1.4 5.8-2.9 1.9-1.4 2.9-2.9 4.3-4.8 0.9-1.9 1.4-4.8 1.4-7.6 0-3.3-0.5-5.8-1.4-8.1-0.9-1.9-2.4-3.8-3.8-5.3-1.4-1.4-3.3-1.9-5.3-2.4-1.9-0.5-4.3-0.5-6.7-0.5H548v32.5z m74.6-46.8h24.4l27.3 77h0.5l26.3-77h23.9v98.5h-16.3v-76h-0.5l-27.2 76h-14.3l-27.3-76.1h-0.5v76h-16.3v-98.4z m-24.8 218h-71.3c0-8.6 2.4-16.3 6.2-22.5 3.8-6.2 9.6-12 16.7-16.7 3.3-2.4 6.7-4.8 10.5-7.2 3.8-2.4 7.2-4.8 10-7.6 2.9-2.9 5.8-5.8 7.6-8.6 1.9-3.3 2.9-6.7 3.3-11 0-1.9 0-3.8-0.5-6.2-0.5-1.9-1.4-4.3-2.4-5.8-1.4-1.9-2.9-3.3-5.3-4.8-2.4-1.4-5.3-1.9-9.1-1.9-3.3 0-6.2 0.5-8.6 1.9-2.4 1.4-3.8 3.3-5.3 5.8-1.4 2.4-2.4 5.3-2.9 8.1-1.4 3.3-1.4 6.7-1.9 10.5h-16.6c0-5.8 0.9-11 2.4-15.8 1.4-4.8 3.8-9.1 6.7-12.9 3.3-3.8 7.2-6.7 11.5-8.6 4.3-1.9 9.6-2.9 15.3-2.9 6.2 0 11.5 0.9 15.8 3.3 4.3 1.9 7.6 4.8 10.5 7.6 2.4 3.3 4.3 6.7 5.8 10.5 0.9 3.8 1.4 7.2 1.4 10.5 0 4.3-0.5 8.1-1.9 11.5-1.5 3.3-2.9 6.7-5.3 9.1-2.4 2.9-4.8 5.3-7.6 7.6-2.9 2.4-5.8 4.8-8.6 6.7-2.9 1.9-5.8 3.8-9.1 5.8-2.9 1.9-5.8 3.8-8.1 5.8-2.4 1.9-4.8 3.8-6.7 5.8-1.9 1.9-3.3 4.3-3.8 6.7h50.7v15.3h0.6z m19.1-20.1h20.5v20.1h-20.5v-20.1z m53.1-84.1H724v15.3h-41.1l-5.3 26.3 0.5 0.5c2.4-2.4 5.3-4.3 8.6-5.8 3.3-1.4 7.2-1.9 10.5-1.9 5.3 0 9.6 0.9 13.9 2.4 3.8 1.9 7.6 4.3 10 7.2 2.9 3.3 4.8 6.7 6.2 11 1.5 4.3 2.4 9.1 2.4 13.9 0 4.3-0.5 8.6-1.9 12.9-1.4 4.3-3.3 8.6-6.2 12-2.9 3.8-6.7 6.7-11 9.1-4.8 2.4-10 3.3-16.3 3.3-5.3 0-9.6-0.5-13.9-1.9-4.3-1.5-8.1-3.3-11.5-6.2-3.3-2.9-5.8-5.8-7.6-10-1.9-3.8-2.9-8.6-3.3-13.9h16.7c0.5 5.8 2.4 10 5.8 12.9 3.3 2.9 7.6 4.3 13.4 4.3 3.3 0 6.7-0.5 9.1-1.9 2.4-0.9 4.3-2.9 6.2-4.8 1.4-1.9 2.4-4.3 3.3-7.2 0.5-2.9 0.9-5.8 0.9-9.1 0-2.9-0.5-5.8-0.9-8.1-0.9-2.4-1.9-4.8-3.3-6.7-1.4-1.9-3.8-3.3-6.2-4.8-2.4-0.9-5.3-1.9-9.1-1.9-3.3 0-6.7 0.5-10 1.9s-5.3 3.8-6.7 7.6h-16.7l9.4-56.4z m0 0" p-id="2338" fill="#2c2c2c"></path></svg>