<?xml version="1.0" standalone="no"?><!DOCTYPE svg PUBLIC "-//W3C//DTD SVG 1.1//EN" "http://www.w3.org/Graphics/SVG/1.1/DTD/svg11.dtd"><svg t="1505977163485" class="icon" style="" viewBox="0 0 1447 1024" version="1.1" xmlns="http://www.w3.org/2000/svg" p-id="1740" xmlns:xlink="http://www.w3.org/1999/xlink" width="282.6171875" height="200"><defs><style type="text/css"></style></defs><path d="M1270.146142 916.017539c-45.123648 2.881029-84.260742 21.888337-107.34639 52.120433-6.660041 8.717919-22.861152 14.367729-41.30722 14.367729-25.106109 0-45.647471-9.690734-52.943584-19.306635-24.021046-31.429407-64.767027-49.501315-111.798889-49.501315-50.511546 0-97.842736 20.84069-123.472669 54.402806-6.660041 8.717919-22.861152 14.367729-41.30722 14.367729-25.106109 0-45.647471-9.690734-52.981-19.306635-24.021046-31.429407-64.767027-49.501315-111.798889-49.501315-50.511546 0-97.842736 20.84069-123.435253 54.402806-6.660041 8.717919-22.861152 14.367729-41.30722 14.367729-25.106109 0-45.647471-9.690734-52.943584-19.306635-24.021046-31.429407-64.767027-49.501315-111.798889-49.501315-50.511546 0-97.842736 20.84069-123.435253 54.402806-6.660041 8.717919-22.861152 14.367729-41.30722 14.367729-25.106109 0-45.647471-9.690734-52.981-19.306635-15.153464-19.830459-43.178018-23.422391-62.671733-7.9696-19.456299 15.415376-22.9734 44.001169-7.819936 63.831628l239.911137 0.748319c-1.646302 1.384391-3.554516 2.768781-4.676995 4.190588l76.066647-3.966092 257.010231 0.785735c-1.159895 1.085063-2.731365 2.095294-3.554516 3.180357l57.845075-3.030693 274.109325 0.823151c-0.710903 0.748319-1.870798 1.459222-2.432037 2.170126l39.623502-2.057878 291.171003 0.897983c-0.37416 0.411576-0.972815 0.748319-1.272143 1.197311l97.954984-0.673487c-0.074832-0.074832-0.18708-0.112248-0.261912-0.18708l63.420053 0.18708c17.435837-17.772581 17.435837-46.582871 0-64.355452C1364.958186 929.000877 1318.487563 912.94943 1270.146142 916.017539zM1436.759413 269.694241c-11.860859-21.401929-32.439638-34.534931-54.627302-37.565624l0-0.074832c-34.123356-4.639579-88.114586-14.105817-116.026893-35.358082 0 0-61.923414-55.787197-110.077755-80.182403 0.785735-1.197311 1.721134-2.170126 2.432037-3.442268 20.429114-36.03157 8.306343-82.128033-27.089155-102.968723-20.878106-12.272435-45.161064-12.945922-65.814674-4.07834l-0.037416-0.074832c-30.119848 12.983338-66.114002 43.477346-101.247588 39.847998-22.861152-5.313066-45.946799-9.54107-69.36919-12.384683-31.167495-4.826659-64.018708-8.007015-85.981877-4.377667-0.112248 0-0.299328 0.074832-0.411576 0.074832C359.62875 33.71178 145.459793 316.988015 84.022787 582.042678c-1.384391-1.234727-3.142941-2.432037-4.115756-3.70418-15.153464-19.830459-43.178018-23.422391-62.671733-7.9696-19.456299 15.452792-22.9734 44.001169-7.819936 63.831628 25.629933 33.562116 72.923707 54.440222 123.472669 54.440222 47.031862 0 87.815259-18.034493 111.798889-49.501315 7.333528-9.578486 27.87489-19.306635 52.943584-19.306635 18.446068 0 34.647179 5.612394 41.30722 14.330313 25.629933 33.562116 72.923707 54.440222 123.472669 54.440222 47.031862 0 87.777843-18.034493 111.798889-49.501315 7.333528-9.578486 27.87489-19.306635 52.943584-19.306635 18.446068 0 34.647179 5.612394 41.30722 14.330313 25.629933 33.562116 72.923707 54.440222 123.472669 54.440222 47.031862 0 87.777843-18.034493 111.798889-49.501315 7.296112-9.578486 27.87489-19.306635 52.943584-19.306635 18.446068 0 34.647179 5.612394 41.30722 14.330313 25.629933 33.562116 72.923707 54.440222 123.472669 54.440222 47.031862 0 87.815259-18.034493 111.798889-49.501315 7.071616-9.241742 23.684303-15.976615 42.392283-17.173926 22.486992-1.421806 44.300497 5.051155 55.525285 16.463023 17.435837 17.772581 45.722303 17.772581 63.158141 0 17.435837-17.772581 17.435837-46.582871 0-64.355452-29.408945-29.970184-75.879567-46.021631-124.220988-42.953522-45.123648 2.843613-84.260742 21.850921-107.34639 52.120433-6.660041 8.717919-22.861152 14.367729-41.30722 14.367729-25.106109 0-45.647471-9.690734-52.943584-19.306635-24.021046-31.466823-64.767027-49.501315-111.798889-49.501315-50.511546 0-97.842736 20.878106-123.472669 54.402806-6.660041 8.717919-22.861152 14.367729-41.30722 14.367729-25.106109 0-45.647471-9.690734-52.981-19.306635-24.021046-31.466823-64.767027-49.501315-111.798889-49.501315-50.511546 0-97.842736 20.878106-123.435253 54.402806-3.068109 4.040924-8.343759 7.296112-14.779304 9.765566 4.864075-160.028062 114.193511-274.932476 309.916399-281.143525 7.370944-0.112248 14.741888-0.598655 22.112833-0.261912 3.442268 0.037416 6.809705 0.448992 10.251973 0.561239 28.510962 3.217773 38.014616 37.116633 50.025139 59.902952l0.074832-0.037416c6.285881 11.973107 15.752119 22.374744 28.136802 29.670856 35.395498 20.803274 80.631394 8.456007 101.060509-27.575563 1.122479-1.983046 1.75855-4.115756 2.693949-6.136217 24.956445 17.922245 28.548378 57.732827 27.500731 83.849167l0.074832 0c-0.561239 13.544578 2.394621 27.425899 9.428822 40.109909 20.092371 36.256065 65.216019 49.052324 100.761181 28.62321 9.092078-5.238234 16.650102-12.160187 22.59924-20.129787l0 0c18.745396-25.180941 46.844782-41.344636 77.675533-44.674657l0 0c9.765566-1.047647 19.493715-4.07834 28.585794-9.279158 9.092078-5.238234 16.650102-12.122771 22.59924-20.129787l0 0c18.70798-25.180941 46.844782-41.344636 77.675533-44.674657l0 0c9.765566-1.047647 19.493715-4.07834 28.585794-9.316574C1444.242605 351.934522 1456.814368 305.950307 1436.759413 269.694241zM1200.215713 235.084478c22.449576 25.442853 67.386144 52.120433 108.581117 48.304005-57.433499 11.449284-92.380006-5.088571-129.833382-36.854721-21.401929-18.184157-54.36539-41.12014-78.91026-57.620579 3.180357-8.904999 7.59544-17.173926 12.796258-25.031277C1149.030679 187.154633 1182.218636 214.730196 1200.215713 235.084478zM1280.098788 305.014908c-66.151418 26.714996-113.594855 36.892137-156.024554-7.632856-18.296405-19.194388-34.310436-33.412452-46.807366-43.664426 2.581701-3.180357 5.125987-6.435545 7.22128-10.139725 2.806197-4.938907 4.864075-10.064893 6.472961-15.303128 15.452792 14.891552 37.191464 35.84449 50.623794 48.752996C1163.997063 298.654195 1205.192035 324.097048 1280.098788 305.014908zM787.779583 86.356036c61.923414 3.928676 154.939491 16.76235 208.107571-25.817013-48.079509 78.386437-164.517977 59.004969-253.306051 58.181818-80.332067-0.748319-217.049985 29.857936-278.861152 85.196141C527.439332 91.369775 706.886277 81.23005 787.779583 86.356036zM340.17245 444.277112c20.691026-115.802397 104.839521-215.553347 264.007015-251.809412 175.892429-40.072493 286.456592-15.265712 340.74715-64.879275-52.41976 82.015785-157.670856 70.416837-297.68138 97.281497C518.085341 249.676703 372.088265 366.638994 340.17245 444.277112zM692.256636 289.150541c-79.733411 10.102309-163.133587 44.749488-206.012277 86.468284 31.990646-89.947968 165.752704-118.795674 246.571178-124.632564 61.885998-4.452499 155.762643-4.302835 202.906752-53.654487C898.268914 281.517685 780.333807 278.000585 692.256636 289.150541zM1009.207236 276.054955c-16.799766 16.837182-9.915229 31.167495-12.684011 51.933353-3.367436 25.143525-21.589009 47.780181-47.892429 48.116925-18.333821 0.224496-38.912599-16.313359-33.562116-37.191464 13.170418 18.932476 36.667641 8.343759 48.004677-6.809705 12.721426-16.94943 3.816428-38.239111 10.027477-57.321251 13.24525-40.633733 67.835136-35.507746 77.451038-75.991815 5.051155-21.327097-12.983338-34.759427-5.724642-55.001462 7.520608-20.84069 23.534639-25.92926 40.970476-36.480561 16.799766-10.139725 25.293189-30.456592 5.874306-44.674657-16.912014-12.347267-35.507746-1.159895-50.960538 7.445776 1.459222-0.823151 7.22128-16.687518 10.92546-20.017539 7.9696-7.146448 18.89506-11.524116 29.109617-14.030985 20.765858-5.125987 44.038585-1.421806 52.195265 21.776089 7.59544 21.514177-5.350482 38.426191-18.782812 52.756504-17.622917 18.745396-39.810582 28.548378-37.640456 56.385852 2.13271 27.313651 4.976323 46.76995-13.61941 69.481438C1048.306914 254.204034 1024.959355 260.302835 1009.207236 276.054955zM1022.976309 330.944168c2.31979-9.54107 5.500146-18.745396 10.102309-27.313651 24.208126 6.173633 42.729027 19.793043 62.297574 37.004385C1122.802091 364.805612 1182.742459 367.349898 1205.192035 352.084186c-27.949722 30.980415-96.121602 43.25285-126.05437 13.993569C1064.171281 351.448115 1041.684289 339.362759 1022.976309 330.944168zM1423.439332 307.22245c-4.714411 22.374744-24.470038 29.745688-43.327682 34.684595-24.694534 6.435545-48.640748 2.768781-61.212511 27.575563-12.347267 24.35779-20.054955 42.392283-47.630517 51.634025-21.476761 7.183864-44.487577-0.261912-66.03917 4.639579-23.010816 5.238234-24.582286 21.102602-37.715288 37.266296-15.901783 19.531131-43.140602 28.922537-65.627594 15.041216-15.677287-9.690734-24.54487-34.796843-9.204326-49.613563 1.346975 23.160479 26.789828 26.789828 44.300497 20.092371 19.568547-7.558024 23.085647-30.419176 38.239111-43.25285 32.32739-27.351067 75.991815 6.398129 105.138848-22.78632 15.340544-15.37796 6.996785-36.480561 23.684303-49.763227 17.211342-13.656825 33.449868-9.35399 53.691903-8.867583 19.531131 0.448992 37.266296-12.197603 28.174218-34.759427-7.932184-19.568547-29.521193-20.092371-47.106694-21.102602 1.646302 0.112248 14.81672-10.289389 19.643379-11.075124 10.476469-1.75855 22.038001 0.37416 31.990646 3.741596C1410.717905 267.449284 1428.527902 283.126571 1423.439332 307.22245zM1270.146142 723.587255c-45.123648 2.843613-84.260742 21.850921-107.34639 52.120433-6.660041 8.717919-22.861152 14.367729-41.30722 14.367729-25.106109 0-45.647471-9.690734-52.943584-19.26922-24.021046-31.466823-64.767027-49.501315-111.798889-49.501315-50.511546 0-97.842736 20.84069-123.472669 54.402806-6.660041 8.717919-22.861152 14.367729-41.30722 14.367729-25.106109 0-45.647471-9.690734-52.981-19.26922-24.021046-31.466823-64.767027-49.501315-111.798889-49.501315-50.511546 0-97.842736 20.84069-123.435253 54.402806-6.660041 8.717919-22.861152 14.367729-41.30722 14.367729-25.106109 0-45.647471-9.690734-52.943584-19.26922-24.021046-31.466823-64.767027-49.501315-111.798889-49.501315-50.511546 0-97.842736 20.84069-123.435253 54.402806-6.660041 8.717919-22.861152 14.367729-41.30722 14.367729-25.106109 0-45.647471-9.690734-52.981-19.26922-15.153464-19.830459-43.178018-23.422391-62.671733-7.9696-19.456299 15.415376-22.9734 44.001169-7.819936 63.831628 25.629933 33.562116 72.923707 54.402806 123.472669 54.402806 47.031862 0 87.815259-18.034493 111.798889-49.501315 7.333528-9.578486 27.87489-19.306635 52.943584-19.306635 18.446068 0 34.647179 5.64981 41.30722 14.367729 25.629933 33.562116 72.923707 54.402806 123.472669 54.402806 47.031862 0 87.777843-18.034493 111.798889-49.501315 7.333528-9.578486 27.87489-19.306635 52.943584-19.306635 18.446068 0 34.647179 5.64981 41.30722 14.367729 25.629933 33.562116 72.923707 54.402806 123.472669 54.402806 47.031862 0 87.777843-18.034493 111.798889-49.501315 7.296112-9.578486 27.87489-19.306635 52.943584-19.306635 18.446068 0 34.647179 5.64981 41.30722 14.367729 25.629933 33.562116 72.923707 54.402806 123.472669 54.402806 47.031862 0 87.815259-18.034493 111.798889-49.501315 7.071616-9.241742 23.684303-15.976615 42.392283-17.173926 22.486992-1.421806 44.300497 5.051155 55.525285 16.463023 17.435837 17.772581 45.722303 17.772581 63.158141 0 17.435837-17.772581 17.435837-46.582871 0-64.355452C1364.958186 736.570593 1318.487563 720.48173 1270.146142 723.587255z" p-id="1741"></path></svg>